<?xml version="1.0" standalone="no"?>
<!DOCTYPE svg PUBLIC "-//W3C//DTD SVG 20010904//EN"
 "http://www.w3.org/TR/2001/REC-SVG-20010904/DTD/svg10.dtd">
<svg version="1.0" xmlns="http://www.w3.org/2000/svg"
 width="700.000000pt" height="700.000000pt" viewBox="0 0 700.000000 700.000000"
 preserveAspectRatio="xMidYMid meet">
<metadata>
Created by potrace 1.14, written by Peter Selinger 2001-2017
</metadata>
<g transform="translate(0.000000,700.000000) scale(0.100000,-0.100000)"
fill="#000000" stroke="none">
<path d="M3365 5893 c-71 -124 -142 -247 -157 -272 -15 -25 -31 -53 -35 -61
-4 -8 -49 -87 -100 -174 -51 -87 -93 -160 -93 -161 0 -1 -30 -54 -66 -116
-104 -178 -446 -771 -461 -799 -8 -14 -22 -38 -32 -55 -10 -16 -28 -48 -41
-70 -12 -22 -81 -141 -152 -265 -141 -244 -147 -254 -221 -380 -27 -47 -57
-98 -67 -115 -162 -281 -268 -467 -365 -635 -65 -113 -121 -209 -125 -215 -4
-5 -19 -30 -32 -55 -14 -25 -76 -133 -138 -240 -62 -107 -121 -211 -132 -230
-20 -34 -103 -178 -123 -212 -5 -9 -23 -41 -39 -70 -15 -29 -34 -60 -42 -69
-8 -8 -14 -19 -14 -22 0 -4 -11 -24 -23 -45 -13 -20 -36 -58 -50 -85 -15 -26
-39 -68 -54 -95 -14 -26 -36 -63 -48 -82 -12 -19 -38 -64 -58 -101 l-36 -65
2840 0 c1561 0 2839 1 2839 2 0 0 -54 95 -121 209 -66 115 -131 227 -143 249
-13 23 -47 82 -76 131 -29 50 -64 110 -78 135 -14 25 -36 62 -49 82 -12 21
-23 40 -23 43 0 3 -11 22 -24 43 -20 31 -207 354 -275 475 -40 71 -58 102 -91
157 -18 30 -42 71 -52 90 -10 19 -28 51 -39 70 -35 58 -523 902 -561 970 -11
19 -96 166 -188 325 -92 160 -177 306 -187 325 -35 62 -173 301 -258 445 -44
77 -84 147 -88 155 -4 8 -17 31 -28 50 -24 39 -196 335 -226 390 -11 19 -65
112 -120 206 -55 94 -103 178 -107 185 -3 8 -20 37 -36 64 -17 28 -38 65 -47
83 -9 17 -19 32 -22 32 -3 0 -64 -102 -136 -227z"/>
</g>
</svg>
