<?xml version="1.0" standalone="no"?>
<!DOCTYPE svg PUBLIC "-//W3C//DTD SVG 20010904//EN"
 "http://www.w3.org/TR/2001/REC-SVG-20010904/DTD/svg10.dtd">
<svg version="1.0" xmlns="http://www.w3.org/2000/svg"
 width="700.000000pt" height="700.000000pt" viewBox="0 0 700.000000 700.000000"
 preserveAspectRatio="xMidYMid meet">
<metadata>
Created by potrace 1.14, written by Peter Selinger 2001-2017
</metadata>
<g transform="translate(0.000000,700.000000) scale(0.100000,-0.100000)"
fill="#000000" stroke="none">
<path d="M790 6980 c-200 -44 -358 -128 -497 -267 -131 -130 -216 -279 -266
-465 l-22 -83 0 -2640 c0 -1452 3 -2662 7 -2690 33 -237 178 -483 370 -627
116 -88 229 -142 385 -186 53 -15 291 -16 2693 -18 1626 -2 2660 1 2699 7 303
44 584 243 723 509 52 98 68 145 94 260 l23 105 1 2615 c0 2518 -1 2618 -19
2705 -83 396 -374 690 -769 775 -84 18 -182 18 -2712 18 -2518 0 -2628 0
-2710 -18z m2814 -2129 c53 -90 96 -165 96 -168 0 -3 8 -17 18 -31 11 -15 33
-52 49 -82 46 -84 428 -745 479 -828 24 -40 44 -74 44 -76 0 -3 38 -70 85
-151 47 -80 96 -165 109 -188 13 -23 47 -82 76 -132 29 -49 60 -103 70 -120
24 -42 127 -221 158 -275 14 -25 45 -78 69 -118 24 -41 43 -76 43 -80 0 -3 6
-13 14 -21 7 -9 28 -43 46 -76 17 -33 36 -65 42 -72 5 -7 8 -16 5 -20 -6 -9
-3003 -10 -3012 -1 -4 3 4 23 18 45 13 21 35 58 49 83 14 25 50 88 81 140 60
104 58 100 205 356 57 98 107 186 113 194 12 20 176 304 207 360 14 25 57 99
95 165 38 66 83 145 100 175 16 30 33 60 37 65 5 6 92 156 195 335 103 179
204 354 225 390 21 36 68 116 104 178 36 63 66 119 66 125 0 20 17 -6 114
-172z"/>
</g>
</svg>
